<svg width="142" height="126" viewBox="0 0 142 126" fill="none" xmlns="http://www.w3.org/2000/svg">
<path d="M19.2409 86.4407L17.6052 94.8346C23.028 96.5823 22.1726 91.5125 26.46 91.8152C27.1983 91.8673 27.7372 91.1294 27.4691 90.4395C27.0505 89.3628 26.182 87.9967 24.3835 87.1458C21.053 85.57 19.2409 86.4407 19.2409 86.4407Z" fill="#5C3B12"/>
<path d="M18.2729 82.8592L12.6312 76.4322C16.4352 72.1907 18.2503 77.001 21.8014 74.5796C22.4129 74.1627 23.2502 74.5287 23.3661 75.2596C23.5469 76.4006 23.4849 78.0183 22.36 79.6593C20.2769 82.6984 18.2729 82.8592 18.2729 82.8592Z" fill="#382502"/>
<path d="M16.73 96.3773C10.9852 97.9301 5.04812 94.5196 3.49535 88.7747C1.94258 83.0299 5.3531 77.0928 11.0979 75.54L16.73 96.3773Z" fill="#382502"/>
<path d="M7.03386 92.6499L6.32683 93.6297C8.97165 96.2373 12.8934 97.4147 16.7302 96.3777L15.8192 93.0072C15.6239 93.0701 15.4264 93.1289 15.2262 93.183C12.3888 93.9499 9.52289 93.6958 7.03386 92.6499Z" fill="#5C3B12"/>
<path d="M26.5135 75.5838C22.0348 76.7944 20.8256 80.2782 20.8256 80.2782L22.7463 87.3841C22.7463 87.3841 25.5459 89.7844 30.0246 88.5739L26.5135 75.5838Z" fill="#FF889E"/>
<path d="M22.4888 86.3979L23.8502 86.03C24.6021 85.8267 25.0469 85.0525 24.8437 84.3005C24.7018 83.7756 24.2815 83.4007 23.7848 83.2912C24.1586 82.9463 24.3329 82.4107 24.191 81.8858C23.9878 81.1339 23.2135 80.6891 22.4616 80.8924L21.1001 81.2604L22.4888 86.3979Z" fill="white"/>
<path d="M29.1137 85.2032L26.7777 85.8346C26.5706 85.8905 26.4482 86.1037 26.5042 86.3107C26.5601 86.5177 26.7732 86.6402 26.9803 86.5842L29.3164 85.9528L29.1137 85.2032Z" fill="#FF748F"/>
<path d="M27.2224 78.2051L24.8863 78.8365C24.6793 78.8925 24.5568 79.1057 24.6128 79.3127C24.6687 79.5197 24.8819 79.6422 25.0889 79.5862L27.425 78.9548L27.2224 78.2051Z" fill="#FF748F"/>
<path d="M14.528 76.5281C14.1641 75.1815 12.7774 74.385 11.4309 74.749C10.0844 75.1129 9.28784 76.4995 9.65179 77.8461C10.0157 79.1926 11.4024 79.9891 12.7489 79.6252C14.0954 79.2612 14.892 77.8746 14.528 76.5281Z" fill="#FFCABD"/>
<path d="M28.6033 87.4194C26.1316 88.0875 23.6743 87.3901 22.3257 85.8279L22.7463 87.3841C22.7463 87.3841 25.5459 89.7844 30.0246 88.5739L29.6166 87.0645C29.2945 87.2048 28.956 87.3241 28.6033 87.4194Z" fill="#FF748F"/>
<path d="M8.49498 86.6967C8.22245 87.17 8.38739 87.7802 8.86122 88.0517C12.6128 90.2017 14.2701 94.8955 14.271 94.8979C14.926 94.8712 15.5882 94.7719 16.2478 94.5936C21.0166 93.3047 23.8375 88.394 22.5486 83.6252C21.2596 78.8564 16.3489 76.0355 11.5802 77.3244C10.9206 77.5027 10.2985 77.7506 9.71916 78.0575C9.71988 78.0611 10.6524 82.95 8.49498 86.6967Z" fill="#FFDCCE"/>
<path d="M27.0449 82.4098C26.9313 81.9897 26.4988 81.7412 26.0787 81.8547C25.6586 81.9683 25.4101 82.4009 25.5237 82.8209C25.6372 83.241 26.0698 83.4895 26.4899 83.376C26.9099 83.2624 27.1584 82.8298 27.0449 82.4098Z" fill="white"/>
<path d="M5.78441 93.0084C3.2627 96.4857 8.01923 95.4439 8.01923 95.4439L8.79375 94.3759C8.79375 94.3759 8.30607 89.5312 5.78441 93.0084Z" fill="#BC9BDD"/>
<path d="M9.21365 96.3105C9.21365 96.3105 9.70134 101.155 12.223 97.678C14.7447 94.2007 9.98817 95.2425 9.98817 95.2425L9.21365 96.3105Z" fill="#BC9BDD"/>
<path d="M7.70349 94.4002C7.26257 95.0082 7.39802 95.8585 8.00603 96.2995L8.40439 96.5884C9.01239 97.0293 9.86274 96.8938 10.3037 96.2858C10.7446 95.6778 10.6091 94.8275 10.0011 94.3866L9.60276 94.0976C8.99476 93.6567 8.1444 93.7922 7.70349 94.4002Z" fill="#FFB5EC"/>
<path d="M3.33998 83.9647C-0.590122 82.2313 4.04354 80.7349 4.04354 80.7349L5.25063 81.2673C5.25063 81.2673 7.27003 85.6981 3.33998 83.9647Z" fill="#BC9BDD"/>
<path d="M4.63898 79.3849C4.63898 79.3849 2.61958 74.9541 6.54963 76.6875C10.4797 78.421 5.84607 79.9173 5.84607 79.9173L4.63898 79.3849Z" fill="#BC9BDD"/>
<path d="M4.29652 81.7958C3.60935 81.4927 3.29797 80.6899 3.60106 80.0027L3.79963 79.5525C4.10272 78.8653 4.90553 78.5539 5.5927 78.857C6.27988 79.1601 6.59126 79.9629 6.28817 80.6501L6.0896 81.1003C5.78651 81.7875 4.9837 82.0989 4.29652 81.7958Z" fill="#FFB5EC"/>
<path d="M22.7072 87.6074C21.0961 90.2417 18.4832 92.3025 15.2261 93.1829C14.7023 93.3245 14.1775 93.4311 13.6542 93.5046C14.0711 94.3319 14.2707 94.897 14.271 94.8979C14.2714 94.8979 14.2718 94.8978 14.2722 94.8978C14.2838 94.9674 14.2991 95.0394 14.3194 95.1148C14.6834 96.4613 16.07 97.2579 17.4165 96.8939C18.7631 96.5299 19.5597 95.1433 19.1957 93.7968C19.1448 93.6084 19.0786 93.4513 18.9996 93.3197C20.9447 91.9756 22.2739 89.9092 22.7072 87.6074Z" fill="#FFCABD"/>
<path d="M18.5298 90.4856C18.2334 89.3892 17.2853 88.6916 16.4121 88.9276C15.5389 89.1636 15.0713 90.2438 15.3677 91.3403C15.664 92.4368 16.6122 93.1344 17.4853 92.8983C18.3585 92.6623 18.8261 91.5821 18.5298 90.4856Z" fill="#FF9DB0"/>
<path d="M15.6205 79.7244C15.3241 78.6279 14.376 77.9304 13.5028 78.1664C12.6296 78.4024 12.162 79.4826 12.4584 80.5791C12.7547 81.6756 13.7029 82.3731 14.576 82.1371C15.4492 81.9011 15.9168 80.8209 15.6205 79.7244Z" fill="#FF9DB0"/>
<path d="M15.4894 90.065C15.5453 90.272 15.4229 90.4852 15.2158 90.5411L14.4043 90.7605C14.1972 90.8165 13.9841 90.694 13.9281 90.487C13.8722 90.28 13.9946 90.0668 14.2016 90.0108L15.0132 89.7915C15.2202 89.7355 15.4334 89.858 15.4894 90.065Z" fill="#423E4F"/>
<path d="M13.2052 81.6182C13.2611 81.8252 13.1387 82.0384 12.9317 82.0944L12.1201 82.3137C11.913 82.3697 11.6999 82.2472 11.6439 82.0402C11.588 81.8332 11.7104 81.62 11.9174 81.5641L12.729 81.3447C12.936 81.2887 13.1492 81.4112 13.2052 81.6182Z" fill="#423E4F"/>
<path d="M14.8297 85.711C14.9744 86.246 14.8802 86.8176 14.5713 87.2789C14.452 87.4571 14.2108 87.5048 14.0326 87.3856C13.8544 87.2663 13.8067 87.0251 13.926 86.8469C14.1099 86.5721 14.1661 86.2319 14.0801 85.9136C13.994 85.5953 13.7741 85.3297 13.4768 85.185C13.284 85.0912 13.2038 84.8589 13.2975 84.666C13.3914 84.4731 13.6237 84.3929 13.8166 84.4868C14.3158 84.7297 14.6851 85.1759 14.8297 85.711Z" fill="#423E4F"/>
<path d="M23.0657 59.946L23.7658 53.2441L25.2907 53.4035L24.3947 61.9798L10.2529 60.5024L10.4488 58.6279L23.0657 59.946Z" fill="#2281C0"/>
<path d="M24.642 43.879L22.5912 49.4719L25.6147 52.0055L24.949 53.8209L13.4687 43.8281L14.0335 42.2878L29.2557 42.0759L28.5934 43.8821L24.642 43.879ZM21.3375 48.4089L23.0017 43.8704L15.9241 43.8547L21.3375 48.4089Z" fill="#2281C0"/>
<path d="M28.2819 33.4611L26.347 36.1834L31.0353 39.5158L29.9433 41.052L18.3539 32.8144L21.0809 28.9778C22.0088 27.6724 23.0188 26.8807 24.1111 26.6026C25.207 26.3193 26.3228 26.5812 27.4584 27.3884C28.1801 27.9014 28.6694 28.5447 28.9262 29.3183C29.1868 30.0866 29.2027 30.9127 28.9739 31.7964L35.828 32.5706L35.9235 32.6385L34.758 34.2783L28.2819 33.4611ZM25.0973 35.2951L26.7663 32.947C27.3057 32.1882 27.5374 31.4463 27.4616 30.7215C27.3895 29.9913 27.0245 29.3923 26.3665 28.9246C25.6501 28.4154 24.9481 28.24 24.2605 28.3982C23.5767 28.5512 22.9455 29.0291 22.3669 29.8319L20.7035 32.1721L25.0973 35.2951Z" fill="#2281C0"/>
<path d="M40.3324 24.0373L35.7413 27.8332L37.0749 31.5457L35.5847 32.7778L30.709 18.3597L31.9734 17.3143L45.2258 24.8064L43.7432 26.0323L40.3324 24.0373ZM35.1947 26.2831L38.9202 23.2028L32.816 19.6207L35.1947 26.2831Z" fill="#2281C0"/>
<path d="M59.4376 12.2763C59.8476 13.6078 59.9819 14.8403 59.8404 15.9738C59.6971 17.1011 59.2952 18.0525 58.6348 18.8281C57.9744 19.6036 57.0967 20.16 56.0016 20.4972C54.9314 20.8268 53.9021 20.8576 52.9136 20.5898C51.9232 20.3157 51.0483 19.7643 50.289 18.9354C49.534 18.0984 48.9529 17.0409 48.5458 15.763L48.244 14.783C47.8417 13.4764 47.7134 12.2522 47.8591 11.1106C48.0049 9.96899 48.4101 9.00633 49.0747 8.22263C49.7437 7.43079 50.6133 6.8701 51.6835 6.54055C52.7724 6.20526 53.812 6.17464 54.8024 6.4487C55.7971 6.71462 56.6727 7.27948 57.4292 8.14329C58.1837 9.00088 58.7651 10.0923 59.1731 11.4176L59.4376 12.2763ZM57.3848 11.9479C56.8885 10.3364 56.1847 9.20091 55.2732 8.54152C54.3597 7.8759 53.3213 7.72224 52.1577 8.08052C51.0253 8.42923 50.2656 9.1366 49.8786 10.2027C49.4959 11.2606 49.5309 12.5577 49.9835 14.0941L50.2911 15.0927C50.772 16.6545 51.477 17.7828 52.4062 18.4776C53.3398 19.1643 54.3821 19.3304 55.5332 18.9759C56.6905 18.6195 57.4571 17.9237 57.8331 16.8882C58.2072 15.8466 58.1612 14.5358 57.6952 12.9559L57.3848 11.9479Z" fill="#2281C0"/>
<path d="M64.7354 16.9821L71.4639 16.6183L71.5466 18.1493L62.9362 18.6149L62.1684 4.41685L64.0505 4.31508L64.7354 16.9821Z" fill="#2281C0"/>
<path d="M75.0224 18.7401L73.1599 18.5237L74.8003 4.39993L76.6628 4.61625L75.0224 18.7401Z" fill="#2281C0"/>
<path d="M83.0538 17.9814L90.4257 7.99564L92.3834 8.60657L83.1136 20.6088L81.5289 20.1142L80.7399 4.97301L82.6883 5.58103L83.0538 17.9814Z" fill="#2281C0"/>
<path d="M98.8962 21.2264L93.6374 18.0145L91.0109 22.3149L97.1198 26.046L96.3206 27.3544L88.6116 22.646L96.0229 10.5115L103.649 15.169L102.844 16.4858L96.8188 12.8056L94.4366 16.706L99.6954 19.9179L98.8962 21.2264Z" fill="#2281C0"/>
<path d="M99.117 30.0375L97.7164 28.7909L107.169 18.1695L108.57 19.416L99.117 30.0375Z" fill="#2281C0"/>
<path d="M109.01 32.3716L106.957 29.7367L102.419 33.2712L101.261 31.7842L112.479 23.0471L115.371 26.7606C116.355 28.0241 116.824 29.2189 116.777 30.3449C116.733 31.4761 116.162 32.4698 115.063 33.3259C114.365 33.8699 113.608 34.154 112.793 34.1779C111.982 34.207 111.186 33.9852 110.406 33.5124L107.697 39.8558L107.604 39.9278L106.368 38.3407L109.01 32.3716ZM108.167 28.7946L109.937 31.0674C110.509 31.8019 111.153 32.2368 111.869 32.3722C112.59 32.5128 113.268 32.335 113.905 31.8389C114.598 31.2988 114.968 30.6768 115.014 29.9727C115.063 29.2738 114.787 28.5319 114.184 27.7472L112.42 25.4821L108.167 28.7946Z" fill="#2281C0"/>
<path d="M114.532 46.6143L112.232 41.1192L108.292 41.3179L107.546 39.5342L122.758 39.0529L123.392 40.5663L112.376 51.0739L111.633 49.2993L114.532 46.6143ZM113.874 41.0459L115.741 45.505L120.94 40.7032L113.874 41.0459Z" fill="#2281C0"/>
<path d="M122.434 59.6427C122.474 60.2925 122.313 60.8447 121.949 61.2993C121.594 61.7534 121.116 61.999 120.515 62.0361C119.914 62.0733 119.405 61.8887 118.989 61.4823C118.58 61.0754 118.356 60.547 118.316 59.8972C118.275 59.2393 118.436 58.683 118.8 58.2284C119.164 57.782 119.642 57.5404 120.235 57.5038C120.828 57.4671 121.332 57.6479 121.748 58.0462C122.165 58.4526 122.393 58.9848 122.434 59.6427Z" fill="#2281C0"/>
<path d="M118.165 73.0753L112.792 71.6194L113.282 69.8097L127.006 73.5287L125.635 78.5903C125.228 80.0921 124.526 81.1633 123.529 81.8039C122.531 82.4507 121.401 82.603 120.137 82.2607C118.805 81.8997 117.891 81.2034 117.395 80.1719C116.903 79.1483 116.868 77.8604 117.289 76.3083L118.165 73.0753ZM119.645 73.4764L118.763 76.7282C118.501 77.6959 118.526 78.4987 118.839 79.1366C119.158 79.7762 119.748 80.2126 120.609 80.4459C121.426 80.6673 122.149 80.5867 122.779 80.2043C123.409 79.8218 123.855 79.1839 124.117 78.2904L125.027 74.9349L119.645 73.4764Z" fill="#2281C0"/>
<path d="M110.438 93.412C109.236 92.7078 108.304 91.8902 107.642 90.9592C106.985 90.0315 106.639 89.0587 106.601 88.0408C106.564 87.0229 106.834 86.0196 107.414 85.0309C107.98 84.0646 108.717 83.3462 109.627 82.8755C110.542 82.408 111.559 82.2231 112.679 82.3208C113.802 82.4273 114.945 82.8139 116.108 83.4806L116.993 83.9989C118.173 84.6899 119.095 85.5054 119.759 86.4453C120.423 87.3851 120.775 88.3685 120.815 89.3954C120.857 90.4311 120.595 91.4321 120.029 92.3983C119.453 93.3814 118.708 94.1066 117.793 94.5741C116.88 95.0504 115.853 95.2259 114.711 95.1006C113.576 94.9785 112.41 94.567 111.213 93.8661L110.438 93.412ZM112.173 92.2666C113.628 93.1188 114.914 93.4799 116.031 93.3498C117.154 93.223 118.024 92.6343 118.639 91.5839C119.238 90.5615 119.32 89.5266 118.884 88.4794C118.451 87.4411 117.549 86.5087 116.177 85.6823L115.275 85.1542C113.865 84.3282 112.583 83.9732 111.428 84.0892C110.276 84.2141 109.396 84.7962 108.787 85.8354C108.175 86.8803 108.08 87.9113 108.503 88.9286C108.931 89.9491 109.851 90.8841 111.263 91.7335L112.173 92.2666Z" fill="#2281C0"/>
<path d="M103.95 99.0081L106.337 96.6724L102.315 92.561L103.662 91.2429L113.606 101.406L110.242 104.698C109.097 105.818 107.962 106.418 106.838 106.498C105.709 106.582 104.658 106.126 103.683 105.131C103.064 104.498 102.697 103.778 102.581 102.971C102.461 102.169 102.592 101.353 102.974 100.524L96.3659 98.5456L96.2839 98.4619L97.7218 97.055L103.95 99.0081ZM107.41 97.7683L105.351 99.783C104.685 100.434 104.325 101.123 104.271 101.85C104.213 102.581 104.466 103.235 105.03 103.812C105.645 104.441 106.305 104.738 107.01 104.704C107.71 104.675 108.416 104.317 109.128 103.629L111.18 101.621L107.41 97.7683Z" fill="#2281C0"/>
<path d="M93.2024 114.975L97.1459 112.665L90.7389 101.728L92.3484 100.785L98.7553 111.722L102.69 109.417L103.47 110.749L93.9823 116.307L93.2024 114.975Z" fill="#2281C0"/>
<path d="M84.036 104.769L85.794 104.117L90.7391 117.448L88.9812 118.101L84.036 104.769Z" fill="#2281C0"/>
<path d="M74.7332 113.428L80.6068 112.377L79.5012 106.196L81.3469 105.866L83.8505 119.862L75.1795 121.413L74.9078 119.894L81.7331 118.674L80.8768 113.886L75.0032 114.937L74.7332 113.428Z" fill="#2281C0"/>
<path d="M59.3358 113.383C59.4485 111.994 59.7806 110.8 60.3321 109.8C60.8831 108.806 61.609 108.071 62.5098 107.595C63.4106 107.12 64.432 106.928 65.5741 107.021C66.6902 107.112 67.6577 107.465 68.4765 108.08C69.2947 108.701 69.9029 109.538 70.3009 110.589C70.6919 111.646 70.8396 112.844 70.7441 114.182L70.6611 115.204C70.5505 116.566 70.216 117.751 69.6575 118.757C69.0989 119.764 68.3658 120.507 67.458 120.989C66.5431 121.476 65.5276 121.675 64.4115 121.584C63.2759 121.492 62.299 121.135 61.4807 120.514C60.6554 119.898 60.0516 119.049 59.6692 117.966C59.2863 116.89 59.1509 115.661 59.2631 114.278L59.3358 113.383ZM61.1206 114.449C60.9842 116.13 61.2171 117.445 61.8192 118.395C62.4209 119.352 63.3284 119.88 64.5419 119.978C65.7229 120.074 66.6907 119.699 67.4453 118.852C68.1928 118.011 68.6411 116.794 68.7902 115.199L68.8747 114.157C69.0069 112.529 68.7703 111.219 68.1648 110.23C67.5523 109.246 66.6458 108.705 65.4453 108.608C64.2383 108.51 63.2684 108.872 62.5354 109.694C61.8018 110.523 61.3587 111.757 61.206 113.398L61.1206 114.449Z" fill="#2281C0"/>
<path d="M56.3309 107.156L49.9456 105.004L50.4354 103.551L58.6067 106.305L54.0648 119.779L52.2788 119.177L56.3309 107.156Z" fill="#2281C0"/>
<path d="M47.5444 101.824L49.1962 102.711L42.4667 115.237L40.815 114.349L47.5444 101.824Z" fill="#2281C0"/>
<path d="M32.1866 98.7431C33.0744 97.6693 34.0308 96.8804 35.0558 96.3763C36.0767 95.8772 37.0925 95.6907 38.1033 95.8168C39.1141 95.943 40.061 96.3711 40.9441 97.1012C41.8071 97.8148 42.398 98.6582 42.7169 99.6314C43.0316 100.61 43.051 101.644 42.7752 102.733C42.4901 103.824 41.9253 104.89 41.0808 105.932L40.4274 106.722C39.5562 107.776 38.6035 108.555 37.5693 109.06C36.5351 109.565 35.5081 109.755 34.4881 109.63C33.459 109.505 32.5129 109.087 31.6499 108.373C30.7718 107.647 30.1755 106.795 29.8608 105.817C29.5369 104.839 29.5283 103.797 29.8349 102.691C30.1374 101.589 30.7305 100.504 31.6141 99.4355L32.1866 98.7431ZM33.0392 100.639C31.9647 101.939 31.4022 103.15 31.3515 104.274C31.2967 105.403 31.7384 106.355 32.6767 107.131C33.5899 107.886 34.5982 108.133 35.7017 107.871C36.796 107.61 37.8609 106.869 38.8965 105.647L39.5624 104.841C40.6036 103.582 41.1595 102.373 41.2301 101.215C41.2915 100.058 40.858 99.0955 39.9298 98.328C38.9965 97.5564 37.994 97.2977 36.9222 97.5519C35.8462 97.8111 34.7759 98.5693 33.7112 99.8262L33.0392 100.639Z" fill="#2281C0"/>
</svg>
