<svg width="25" height="35" viewBox="0 0 25 35" fill="none" xmlns="http://www.w3.org/2000/svg">
<path fill-rule="evenodd" clip-rule="evenodd" d="M24.9727 7.08203H0.506958L2.76038 32.1916L12.7398 34.7669L22.7192 32.1916L24.9727 7.08203ZM22.3974 9.65754H2.43854L4.27686 30.0955L12.418 32.1917L20.5591 30.0955L22.3974 9.65754ZM20.0533 11.5883H4.6013L4.92322 14.8718H12.9539L5.24505 18.6706L5.56697 21.2459H15.8683L15.5464 25.1089L12.3272 25.7528L9.42998 25.1089L9.10806 22.5336H5.56697L6.21081 27.3624L12.3272 28.972L18.4437 27.3624L19.4094 18.0268L13.6149 18.0268L19.7364 14.8775L19.7317 14.8685L20.0533 11.5883Z" fill="white"/>
<path d="M10.135 6.8335C10.1145 7.27881 9.9944 7.67285 9.77467 8.01562C9.55494 8.35547 9.24586 8.61914 8.84742 8.80664C8.45192 8.99414 7.99928 9.08789 7.48951 9.08789C6.64869 9.08789 5.98658 8.81396 5.50319 8.26611C5.01979 7.71826 4.77809 6.94482 4.77809 5.9458V5.62939C4.77809 5.00244 4.88649 4.45459 5.10328 3.98584C5.32301 3.51416 5.63795 3.15088 6.04811 2.896C6.45826 2.63818 6.93287 2.50928 7.47194 2.50928C8.2483 2.50928 8.87233 2.71436 9.34401 3.12451C9.81569 3.53174 10.0838 4.09424 10.1482 4.81201H8.61012C8.5984 4.42236 8.50026 4.14258 8.31569 3.97266C8.13112 3.80273 7.84987 3.71777 7.47194 3.71777C7.08815 3.71777 6.8069 3.86133 6.62819 4.14844C6.44948 4.43555 6.35573 4.89404 6.34694 5.52393V5.97656C6.34694 6.65918 6.4319 7.14697 6.60182 7.43994C6.77467 7.73291 7.07057 7.87939 7.48951 7.87939C7.84401 7.87939 8.115 7.7959 8.3025 7.62891C8.49 7.46191 8.58961 7.19678 8.60133 6.8335H10.135ZM14.1648 7.29932C14.1648 7.07373 14.0842 6.89795 13.9231 6.77197C13.7649 6.646 13.4851 6.51562 13.0838 6.38086C12.6824 6.24609 12.3543 6.11572 12.0994 5.98975C11.2703 5.58252 10.8557 5.02295 10.8557 4.31104C10.8557 3.95654 10.9583 3.64453 11.1633 3.375C11.3714 3.10254 11.6643 2.8916 12.0422 2.74219C12.4202 2.58984 12.845 2.51367 13.3167 2.51367C13.7766 2.51367 14.1882 2.5957 14.5515 2.75977C14.9177 2.92383 15.2019 3.1582 15.4041 3.46289C15.6062 3.76465 15.7073 4.11035 15.7073 4.5H14.1692C14.1692 4.23926 14.0886 4.03711 13.9275 3.89355C13.7693 3.75 13.554 3.67822 13.2815 3.67822C13.0061 3.67822 12.7879 3.73975 12.6267 3.86279C12.4685 3.98291 12.3894 4.13672 12.3894 4.32422C12.3894 4.48828 12.4773 4.6377 12.6531 4.77246C12.8289 4.9043 13.138 5.04199 13.5803 5.18555C14.0227 5.32617 14.386 5.47852 14.6702 5.64258C15.3616 6.04102 15.7073 6.59033 15.7073 7.29053C15.7073 7.8501 15.4964 8.28955 15.0745 8.60889C14.6526 8.92822 14.074 9.08789 13.3386 9.08789C12.8201 9.08789 12.3499 8.99561 11.928 8.81104C11.509 8.62354 11.1926 8.36865 10.9788 8.04639C10.7678 7.72119 10.6624 7.34766 10.6624 6.92578H12.2092C12.2092 7.26855 12.2971 7.52197 12.4729 7.68604C12.6516 7.84717 12.9402 7.92773 13.3386 7.92773C13.5935 7.92773 13.7942 7.87354 13.9407 7.76514C14.0901 7.65381 14.1648 7.49854 14.1648 7.29932ZM19.7986 7.29932C19.7986 7.07373 19.718 6.89795 19.5569 6.77197C19.3987 6.646 19.1189 6.51562 18.7175 6.38086C18.3162 6.24609 17.988 6.11572 17.7332 5.98975C16.9041 5.58252 16.4895 5.02295 16.4895 4.31104C16.4895 3.95654 16.5921 3.64453 16.7971 3.375C17.0051 3.10254 17.2981 2.8916 17.676 2.74219C18.054 2.58984 18.4788 2.51367 18.9505 2.51367C19.4104 2.51367 19.822 2.5957 20.1853 2.75977C20.5515 2.92383 20.8357 3.1582 21.0379 3.46289C21.24 3.76465 21.3411 4.11035 21.3411 4.5H19.803C19.803 4.23926 19.7224 4.03711 19.5613 3.89355C19.4031 3.75 19.1878 3.67822 18.9153 3.67822C18.6399 3.67822 18.4216 3.73975 18.2605 3.86279C18.1023 3.98291 18.0232 4.13672 18.0232 4.32422C18.0232 4.48828 18.1111 4.6377 18.2869 4.77246C18.4627 4.9043 18.7717 5.04199 19.2141 5.18555C19.6565 5.32617 20.0198 5.47852 20.304 5.64258C20.9954 6.04102 21.3411 6.59033 21.3411 7.29053C21.3411 7.8501 21.1301 8.28955 20.7083 8.60889C20.2864 8.92822 19.7078 9.08789 18.9724 9.08789C18.4539 9.08789 17.9837 8.99561 17.5618 8.81104C17.1428 8.62354 16.8264 8.36865 16.6126 8.04639C16.4016 7.72119 16.2962 7.34766 16.2962 6.92578H17.843C17.843 7.26855 17.9309 7.52197 18.1067 7.68604C18.2854 7.84717 18.574 7.92773 18.9724 7.92773C19.2273 7.92773 19.428 7.87354 19.5745 7.76514C19.7239 7.65381 19.7986 7.49854 19.7986 7.29932Z" fill="white"/>
</svg>
