<svg width="30" height="30" viewBox="0 0 30 30" fill="none" xmlns="http://www.w3.org/2000/svg">
<path fill-rule="evenodd" clip-rule="evenodd" d="M19.4132 1.29328C20.4615 1.62217 21.4719 2.07247 22.4444 2.64421C24.7339 3.9904 26.5465 5.81667 27.8829 8.12344C29.1879 10.3773 29.8559 12.8336 29.8865 15.4924C29.804 22.2474 25.0815 27.9052 18.706 29.5304C18.6752 29.4428 18.6598 29.3479 18.6598 29.2455V25.1095C18.6598 23.8419 18.3226 22.9139 17.6483 22.326C18.3876 22.2476 19.0523 22.1297 19.6427 21.9727C20.2328 21.8157 20.8427 21.561 21.4719 21.2081C22.101 20.8554 22.6265 20.4209 23.0484 19.9045C23.4699 19.388 23.8134 18.7023 24.0792 17.8461C24.3447 16.9899 24.4781 16.0067 24.4781 14.8959C24.4781 13.3146 23.9654 11.9684 22.9407 10.8574C23.4209 9.66834 23.3689 8.3354 22.7853 6.85855C22.4219 6.74079 21.8962 6.81275 21.2087 7.07401C20.5215 7.33541 19.9244 7.62296 19.4188 7.93675L18.6794 8.40702C17.4727 8.06735 16.2271 7.89747 14.943 7.89747C13.6588 7.89747 12.4136 8.06735 11.2069 8.40702C10.9993 8.26351 10.7238 8.08657 10.3799 7.87777C10.036 7.6689 9.49455 7.41698 8.75508 7.1229C8.01574 6.82896 7.45783 6.74059 7.08162 6.85834C6.51077 8.33513 6.46544 9.66813 6.94552 10.8572C5.92069 11.9682 5.40817 13.3141 5.40817 14.8957C5.40817 16.0065 5.54114 16.9866 5.80701 17.8362C6.07274 18.6855 6.41337 19.3719 6.82843 19.8947C7.24342 20.4172 7.76555 20.8552 8.39495 21.2079C9.02401 21.5611 9.63379 21.8158 10.2239 21.9728C10.8143 22.1295 11.479 22.2474 12.2183 22.3257C11.6996 22.7961 11.3817 23.4691 11.265 24.345C10.9924 24.4756 10.7005 24.5739 10.3894 24.6393C10.0779 24.7043 9.70828 24.737 9.28027 24.737C8.85226 24.737 8.42732 24.5967 8.00586 24.3157C7.58405 24.0346 7.22441 23.6262 6.92589 23.0903C6.67938 22.6722 6.36485 22.3325 5.98223 22.0712C5.59941 21.8096 5.27847 21.6532 5.01901 21.6008L4.62999 21.5422C4.35744 21.5422 4.16961 21.5708 4.06567 21.6298C3.96174 21.6888 3.92943 21.764 3.96842 21.8556C4.00733 21.9472 4.0656 22.0387 4.14344 22.1301C4.22134 22.2215 4.30557 22.3002 4.39636 22.3655L4.5326 22.4638C4.81796 22.5944 5.10005 22.8426 5.379 23.2086C5.65795 23.5743 5.86214 23.9079 5.99184 24.2083L6.18642 24.6594C6.3551 25.1557 6.64046 25.5577 7.04243 25.8648C7.44461 26.1719 7.87909 26.368 8.34622 26.4525C8.81314 26.5378 9.26412 26.5836 9.69853 26.5897C10.1332 26.5961 10.4931 26.5738 10.7785 26.5211L11.2261 26.4431C11.2261 26.9393 11.2292 27.5209 11.2359 28.1875C11.2424 28.8542 11.2457 29.2069 11.2457 29.2461C11.2457 29.3498 11.2293 29.4459 11.1965 29.5344C4.8123 27.9145 0.0817777 22.252 0 15.4906C0.0302551 12.8324 0.698008 10.3767 2.0032 8.12344C3.33956 5.81667 5.15218 3.99033 7.44189 2.64421C8.4128 2.07336 9.42171 1.62353 10.4686 1.29474C11.8814 0.859564 13.3844 0.625 14.9433 0.625C16.5003 0.625 18.0018 0.859039 19.4132 1.29328Z" fill="white"/>
</svg>
