<svg width="26" height="35" viewBox="0 0 26 35" fill="none" xmlns="http://www.w3.org/2000/svg">
<path fill-rule="evenodd" clip-rule="evenodd" d="M25.3836 7.08203H0.274048L2.58677 32.1916L12.8288 34.7669L23.0709 32.1916L25.3836 7.08203ZM2.84935 9.65754H22.8082L20.9699 30.0955L12.8288 32.1917L4.68767 30.0955L2.84935 9.65754ZM6.06855 12.8762H19.8606V15.7997H6.4222L6.06855 12.8762ZM19.8606 18.3578H9.5607L9.25129 15.8H6.42215L7.12943 21.6469H9.25129L9.25131 21.6467H19.5069L19.8606 18.3578ZM19.507 21.6468H16.3242L15.8291 25.3011L15.8465 25.404L13.1403 26.153L10.1088 25.2828L9.95854 23.1085H7.1294L7.48304 27.4936L9.36688 27.9803L9.36317 27.9941L13.137 29.0774L13.1416 29.0603L13.1513 29.0977L16.3234 28.2197L16.3242 28.2245L16.5993 28.1433L16.8516 28.0735L16.8505 28.0691L18.7997 27.4936L19.507 21.6468Z" fill="white"/>
<path d="M8.77699 9H7.2433V6.32812H4.97133V9H3.42885V2.60156H4.97133V5.1416H7.2433V2.60156H8.77699V9ZM14.6481 3.79248H12.7277V9H11.1852V3.79248H9.29994V2.60156H14.6481V3.79248ZM17.3287 2.60156L18.757 7.05322L20.1808 2.60156H22.2111V9H20.6642V7.50586L20.8136 4.44727L19.2667 9H18.2472L16.6959 4.44287L16.8453 7.50586V9H15.3029V2.60156H17.3287ZM12.4157 18.8135H15.1007V20H10.8732V13.6016H12.4157V18.8135Z" fill="white"/>
</svg>
