<svg width="25" height="38" viewBox="0 0 25 38" fill="none" xmlns="http://www.w3.org/2000/svg">
<path fill-rule="evenodd" clip-rule="evenodd" d="M24.47 10.083H0L2.25382 35.1947L12.235 37.7702L22.2162 35.1947L24.47 10.083ZM2.50977 12.6583H21.9603L20.1688 33.0981L12.235 35.1944L4.30126 33.0981L2.50977 12.6583ZM5.64697 15.8779H19.0877V18.8016H8.74881L9.05034 21.3596H19.0876L18.743 24.6488H8.3421L8.3421 24.6487H6.68097L5.99173 18.8016H5.99161L5.64697 15.8779ZM18.7429 24.6489H15.6412L15.1587 28.3035L15.1757 28.4064L12.5389 29.1554L9.58444 28.285L9.43799 26.1108H6.68091L7.02554 30.4963L8.8611 30.983L8.85757 30.9964L12.5353 32.0799L12.5398 32.0627L12.5493 32.1003L15.6404 31.2223L15.6412 31.2272L15.9096 31.1458L16.1554 31.076L16.1543 31.0717L18.0536 30.4962L18.7429 24.6489Z" fill="white"/>
<path d="M6.00928 9H4.47559V6.32812H2.20361V9H0.661133V2.60156H2.20361V5.1416H4.47559V2.60156H6.00928V9ZM11.8804 3.79248H9.95996V9H8.41748V3.79248H6.53223V2.60156H11.8804V3.79248ZM14.561 2.60156L15.9893 7.05322L17.4131 2.60156H19.4434V9H17.8965V7.50586L18.0459 4.44727L16.499 9H15.4795L13.9282 4.44287L14.0776 7.50586V9H12.5352V2.60156H14.561ZM21.9702 7.81348H24.6553V9H20.4277V2.60156H21.9702V7.81348Z" fill="white"/>
</svg>
