<svg width="26" height="26" viewBox="0 0 26 26" fill="none" xmlns="http://www.w3.org/2000/svg">
<path fill-rule="evenodd" clip-rule="evenodd" d="M2 0.0820312C0.895431 0.0820312 0 0.97746 0 2.08203V23.1916C0 24.2961 0.895429 25.1916 2 25.1916H23.1095C24.2141 25.1916 25.1095 24.2961 25.1095 23.1916V2.08203C25.1095 0.977462 24.2141 0.0820312 23.1095 0.0820312H2ZM1.78761 1.36852C1.51147 1.36923 1.28819 1.59366 1.2889 1.8698L1.34417 23.4362C1.34488 23.7124 1.56931 23.9357 1.84545 23.935L23.4119 23.8797C23.688 23.879 23.9113 23.6545 23.9106 23.3784L23.8553 1.81196C23.8546 1.53582 23.6302 1.31253 23.354 1.31324L1.78761 1.36852Z" fill="white"/>
<path d="M11.3485 12.4527H13.239V19.3937C13.239 20.0318 13.1088 20.5964 12.8483 21.0876C12.592 21.5742 12.2286 21.9507 11.7581 22.2169C11.2875 22.4832 10.7561 22.6163 10.1637 22.6163C9.19325 22.6163 8.43704 22.3477 7.89508 21.8106C7.35313 21.2689 7.08215 20.5046 7.08215 19.5176H8.98529C8.98529 20.0088 9.07982 20.3715 9.26887 20.6056C9.45793 20.8397 9.75621 20.9568 10.1637 20.9568C10.525 20.9568 10.8128 20.8214 11.0271 20.5505C11.2413 20.2797 11.3485 19.8941 11.3485 19.3937V12.4527Z" fill="white"/>
<path d="M19.9935 19.8481C19.9935 19.4579 19.8675 19.1596 19.6154 18.953C19.3633 18.7418 18.9096 18.5215 18.2542 18.2919C17.5988 18.0578 17.08 17.8283 16.6977 17.6033C15.6558 16.9882 15.1348 16.1596 15.1348 15.1175C15.1348 14.5758 15.2735 14.0938 15.5507 13.6715C15.8322 13.2445 16.2334 12.9117 16.7544 12.673C17.2795 12.4343 17.8677 12.3149 18.5189 12.3149C19.1743 12.3149 19.7582 12.4458 20.2708 12.7074C20.7833 12.9645 21.1803 13.3295 21.4618 13.8023C21.7475 14.2751 21.8903 14.8122 21.8903 15.4136H19.9998C19.9998 14.9545 19.8675 14.5988 19.6028 14.3463C19.3381 14.0892 18.9663 13.9607 18.4874 13.9607C18.0252 13.9607 17.666 14.0686 17.4098 14.2843C17.1535 14.4955 17.0254 14.7755 17.0254 15.1244C17.0254 15.4503 17.1745 15.7235 17.4728 15.9438C17.7753 16.1642 18.2185 16.3708 18.8025 16.5636C19.878 16.917 20.6615 17.3554 21.153 17.8788C21.6446 18.4021 21.8903 19.054 21.8903 19.8344C21.8903 20.702 21.59 21.3837 20.9892 21.8795C20.3884 22.3707 19.5797 22.6163 18.563 22.6163C17.8572 22.6163 17.2144 22.4763 16.6347 22.1962C16.0549 21.9116 15.6117 21.5237 15.305 21.0325C15.0025 20.5413 14.8512 19.9721 14.8512 19.3248H16.7481C16.7481 20.4312 17.3531 20.9843 18.563 20.9843C19.0125 20.9843 19.3633 20.8856 19.6154 20.6882C19.8675 20.4862 19.9935 20.2062 19.9935 19.8481Z" fill="white"/>
</svg>
