<svg width="31" height="30" viewBox="0 0 31 30" fill="none" xmlns="http://www.w3.org/2000/svg">
<path fill-rule="evenodd" clip-rule="evenodd" d="M15.0618 29.3749C23.3153 29.3749 30.0061 22.7991 30.0061 14.6874C30.0061 6.57579 23.3153 0 15.0618 0C6.80824 0 0.117432 6.57579 0.117432 14.6874C0.117432 22.7991 6.80824 29.3749 15.0618 29.3749ZM11.8649 21.7966C12.2624 22.0003 12.6213 21.7966 12.6213 21.3034C12.6122 10.3502 12.6567 10.1904 12.6038 10.1456C12.6008 10.143 12.5974 10.1409 12.5937 10.1371L7.87875 7.71006C7.34759 7.43755 7.11267 7.61993 7.11267 8.02302V18.8289C7.11267 18.9743 7.15814 19.1219 7.24701 19.2703C7.33588 19.4186 7.44473 19.5243 7.57425 19.5875L11.8649 21.7966ZM18.1389 19.3505L13.2117 11.1412V16.8291L18.1389 19.3505ZM23.6468 21.3034V11.3122L18.6645 19.6251L22.7333 21.7108C22.8745 21.7931 23.0192 21.8342 23.1666 21.8342C23.3141 21.8342 23.4312 21.7853 23.5173 21.6873C23.6041 21.5894 23.6468 21.4617 23.6468 21.3034ZM21.2528 14.1508C22.8305 11.5195 23.6193 10.1938 23.6193 10.1747C23.6193 10.1491 23.6069 10.13 23.5828 10.1179L18.5908 7.5582C18.3669 7.44323 18.0335 7.49149 17.8709 7.76683L14.8817 12.7621L18.4799 18.7721C18.7506 18.3236 19.6752 16.7822 21.2528 14.1508Z" fill="white"/>
</svg>
