<svg width="135" height="126" viewBox="0 0 135 126" fill="none" xmlns="http://www.w3.org/2000/svg">
<path d="M115.339 39.2731L116.975 30.8793C111.552 29.1316 112.408 34.2014 108.12 33.8987C107.382 33.8465 106.843 34.5845 107.111 35.2743C107.53 36.3511 108.398 37.7172 110.197 38.5681C113.527 40.1439 115.339 39.2731 115.339 39.2731Z" fill="#5C3B12"/>
<path d="M116.307 42.8547L121.949 49.2816C118.145 53.5232 116.33 48.7129 112.779 51.1342C112.167 51.5512 111.33 51.1852 111.214 50.4542C111.033 49.3132 111.095 47.6956 112.22 46.0545C114.303 43.0155 116.307 42.8547 116.307 42.8547Z" fill="#382502"/>
<path d="M117.85 29.3366C123.595 27.7838 129.532 31.1943 131.085 36.9391C132.638 42.684 129.227 48.6211 123.482 50.1738L117.85 29.3366Z" fill="#382502"/>
<path d="M127.546 33.064L128.253 32.0842C125.609 29.4766 121.687 28.2992 117.85 29.3362L118.761 32.7067C118.956 32.6438 119.154 32.585 119.354 32.5309C122.192 31.764 125.057 32.0181 127.546 33.064Z" fill="#5C3B12"/>
<path d="M108.067 50.13C112.545 48.9195 113.755 45.4356 113.755 45.4356L111.834 38.3298C111.834 38.3298 109.034 35.9295 104.556 37.14L108.067 50.13Z" fill="#FF889E"/>
<path d="M112.092 39.3162L110.73 39.6841C109.978 39.8874 109.533 40.6617 109.737 41.4136C109.879 41.9385 110.299 42.3134 110.796 42.4229C110.422 42.7678 110.247 43.3034 110.389 43.8283C110.593 44.5802 111.367 45.025 112.119 44.8217L113.48 44.4538L112.092 39.3162Z" fill="white"/>
<path d="M105.467 40.511L107.803 39.8795C108.01 39.8236 108.132 39.6104 108.076 39.4034C108.02 39.1964 107.807 39.0739 107.6 39.1299L105.264 39.7613L105.467 40.511Z" fill="#FF748F"/>
<path d="M107.358 47.509L109.694 46.8776C109.901 46.8216 110.023 46.6085 109.968 46.4014C109.912 46.1944 109.698 46.072 109.491 46.1279L107.155 46.7593L107.358 47.509Z" fill="#FF748F"/>
<path d="M120.052 49.186C120.416 50.5326 121.803 51.3291 123.149 50.9651C124.496 50.6012 125.292 49.2146 124.929 47.868C124.565 46.5215 123.178 45.725 121.831 46.0889C120.485 46.4529 119.688 47.8395 120.052 49.186Z" fill="#FFCABD"/>
<path d="M105.977 38.2945C108.449 37.6264 110.906 38.3238 112.255 39.886L111.834 38.3298C111.834 38.3298 109.034 35.9295 104.556 37.14L104.964 38.6493C105.286 38.5091 105.624 38.3898 105.977 38.2945Z" fill="#FF748F"/>
<path d="M126.085 39.0171C126.358 38.5439 126.193 37.9336 125.719 37.6621C121.968 35.5122 120.31 30.8184 120.309 30.8159C119.654 30.8427 118.992 30.942 118.332 31.1203C113.564 32.4092 110.743 37.3199 112.032 42.0887C113.321 46.8574 118.231 49.6784 123 48.3894C123.66 48.2111 124.282 47.9633 124.861 47.6564C124.86 47.6527 123.928 42.7639 126.085 39.0171Z" fill="#FFDCCE"/>
<path d="M107.535 43.3041C107.649 43.7242 108.082 43.9727 108.502 43.8591C108.922 43.7456 109.17 43.313 109.057 42.8929C108.943 42.4729 108.511 42.2244 108.09 42.3379C107.67 42.4515 107.422 42.884 107.535 43.3041Z" fill="white"/>
<path d="M128.796 32.7052C131.318 29.2279 126.561 30.2697 126.561 30.2697L125.787 31.3377C125.787 31.3377 126.274 36.1825 128.796 32.7052Z" fill="#BC9BDD"/>
<path d="M125.367 29.4037C125.367 29.4037 124.879 24.5589 122.357 28.0361C119.836 31.5134 124.592 30.4716 124.592 30.4716L125.367 29.4037Z" fill="#BC9BDD"/>
<path d="M126.877 31.3134C127.318 30.7054 127.182 29.8551 126.574 29.4142L126.176 29.1252C125.568 28.6843 124.718 28.8198 124.277 29.4278C123.836 30.0358 123.971 30.8861 124.579 31.3271L124.978 31.616C125.586 32.0569 126.436 31.9214 126.877 31.3134Z" fill="#FFB5EC"/>
<path d="M131.24 41.7489C135.17 43.4823 130.537 44.9787 130.537 44.9787L129.33 44.4463C129.33 44.4463 127.31 40.0155 131.24 41.7489Z" fill="#BC9BDD"/>
<path d="M129.941 46.329C129.941 46.329 131.961 50.7597 128.031 49.0263C124.101 47.2929 128.734 45.7966 128.734 45.7966L129.941 46.329Z" fill="#BC9BDD"/>
<path d="M130.284 43.9181C130.971 44.2212 131.282 45.024 130.979 45.7111L130.781 46.1614C130.478 46.8486 129.675 47.1599 128.988 46.8569C128.3 46.5538 127.989 45.751 128.292 45.0638L128.491 44.6135C128.794 43.9263 129.597 43.615 130.284 43.9181Z" fill="#FFB5EC"/>
<path d="M111.873 38.1065C113.484 35.4722 116.097 33.4114 119.354 32.531C119.878 32.3894 120.403 32.2827 120.926 32.2092C120.509 31.382 120.31 30.8169 120.309 30.816C120.309 30.816 120.309 30.8161 120.308 30.8161C120.297 30.7465 120.281 30.6745 120.261 30.5991C119.897 29.2525 118.51 28.456 117.164 28.82C115.817 29.1839 115.021 30.5706 115.385 31.9171C115.436 32.1055 115.502 32.2626 115.581 32.3942C113.636 33.7382 112.306 35.8047 111.873 38.1065Z" fill="#FFCABD"/>
<path d="M116.051 35.2287C116.347 36.3252 117.295 37.0227 118.168 36.7867C119.041 36.5507 119.509 35.4705 119.213 34.374C118.916 33.2775 117.968 32.58 117.095 32.816C116.222 33.052 115.754 34.1322 116.051 35.2287Z" fill="#FF9DB0"/>
<path d="M118.96 45.9895C119.256 47.0859 120.204 47.7835 121.078 47.5475C121.951 47.3115 122.418 46.2313 122.122 45.1348C121.826 44.0383 120.877 43.3407 120.004 43.5768C119.131 43.8128 118.663 44.893 118.96 45.9895Z" fill="#FF9DB0"/>
<path d="M119.091 35.6486C119.035 35.4416 119.157 35.2284 119.364 35.1725L120.176 34.9531C120.383 34.8972 120.596 35.0196 120.652 35.2266C120.708 35.4336 120.586 35.6468 120.379 35.7028L119.567 35.9221C119.36 35.9781 119.147 35.8556 119.091 35.6486Z" fill="#423E4F"/>
<path d="M121.375 44.0957C121.319 43.8886 121.442 43.6755 121.649 43.6195L122.46 43.4001C122.667 43.3442 122.88 43.4667 122.936 43.6737C122.992 43.8807 122.87 44.0938 122.663 44.1498L121.851 44.3692C121.644 44.4251 121.431 44.3027 121.375 44.0957Z" fill="#423E4F"/>
<path d="M119.751 40.0029C119.606 39.4678 119.7 38.8963 120.009 38.435C120.128 38.2567 120.37 38.209 120.548 38.3283C120.726 38.4476 120.774 38.6887 120.654 38.867C120.47 39.1418 120.414 39.4819 120.5 39.8003C120.586 40.1186 120.806 40.3841 121.104 40.5288C121.296 40.6227 121.377 40.855 121.283 41.0479C121.189 41.2407 120.957 41.321 120.764 41.2271C120.264 40.9842 119.895 40.5379 119.751 40.0029Z" fill="#423E4F"/>
<path d="M111.606 65.7682L110.905 72.47L109.381 72.3107L110.277 63.7343L124.418 65.2117L124.222 67.0863L111.606 65.7682Z" fill="#FF9800"/>
<path d="M110.029 81.8351L112.08 76.2422L109.057 73.7086L109.722 71.8932L121.203 81.886L120.638 83.4263L105.416 83.6382L106.078 81.832L110.029 81.8351ZM113.334 77.3052L111.67 81.8437L118.747 81.8594L113.334 77.3052Z" fill="#FF9800"/>
<path d="M106.389 92.2527L108.324 89.5305L103.636 86.1981L104.728 84.6619L116.317 92.8995L113.59 96.7361C112.663 98.0415 111.653 98.8332 110.56 99.1112C109.464 99.3945 108.349 99.1326 107.213 98.3255C106.491 97.8125 106.002 97.1692 105.745 96.3956C105.485 95.6272 105.469 94.8012 105.697 93.9175L98.8434 93.1432L98.7479 93.0753L99.9133 91.4356L106.389 92.2527ZM109.574 90.4188L107.905 92.7669C107.366 93.5257 107.134 94.2676 107.21 94.9924C107.282 95.7226 107.647 96.3215 108.305 96.7892C109.021 97.2984 109.723 97.4739 110.411 97.3156C111.095 97.1627 111.726 96.6848 112.305 95.882L113.968 93.5418L109.574 90.4188Z" fill="#FF9800"/>
<path d="M94.339 101.677L98.93 97.8807L97.5965 94.1682L99.0867 92.9361L103.962 107.354L102.698 108.4L89.4455 100.907L90.9282 99.6816L94.339 101.677ZM99.4767 99.4308L95.7512 102.511L101.855 106.093L99.4767 99.4308Z" fill="#FF9800"/>
<path d="M75.2338 113.438C74.8238 112.106 74.6895 110.874 74.831 109.74C74.9743 108.613 75.3762 107.661 76.0366 106.886C76.6969 106.11 77.5747 105.554 78.6698 105.217C79.74 104.887 80.7693 104.856 81.7578 105.124C82.7482 105.398 83.6231 105.95 84.3824 106.778C85.1374 107.615 85.7185 108.673 86.1256 109.951L86.4274 110.931C86.8297 112.237 86.958 113.462 86.8123 114.603C86.6665 115.745 86.2613 116.708 85.5966 117.491C84.9276 118.283 84.0581 118.844 82.9878 119.173C81.899 119.509 80.8593 119.539 79.8689 119.265C78.8742 118.999 77.9987 118.434 77.2422 117.571C76.4877 116.713 75.9063 115.622 75.4982 114.296L75.2338 113.438ZM77.2866 113.766C77.7829 115.377 78.4867 116.513 79.3982 117.172C80.3116 117.838 81.3501 117.992 82.5136 117.633C83.6461 117.285 84.4058 116.577 84.7928 115.511C85.1755 114.453 85.1405 113.156 84.6878 111.62L84.3803 110.621C83.8994 109.059 83.1944 107.931 82.2651 107.236C81.3316 106.55 80.2893 106.384 79.1382 106.738C77.9809 107.094 77.2143 107.79 76.8383 108.826C76.4642 109.867 76.5102 111.178 76.9762 112.758L77.2866 113.766Z" fill="#FF9800"/>
<path d="M69.936 108.732L63.2075 109.095L63.1247 107.564L71.7352 107.099L72.503 121.297L70.6209 121.399L69.936 108.732Z" fill="#FF9800"/>
<path d="M59.649 106.974L61.5115 107.19L59.871 121.314L58.0086 121.097L59.649 106.974Z" fill="#FF9800"/>
<path d="M51.6175 107.732L44.2455 117.718L42.2879 117.107L51.5576 105.105L53.1424 105.599L53.9313 120.741L51.983 120.133L51.6175 107.732Z" fill="#FF9800"/>
<path d="M35.775 104.488L41.0339 107.699L43.6604 103.399L37.5515 99.6679L38.3506 98.3594L46.0597 103.068L38.6484 115.202L31.0227 110.545L31.8269 109.228L37.8525 112.908L40.2347 109.008L34.9759 105.796L35.775 104.488Z" fill="#FF9800"/>
<path d="M35.5543 95.6764L36.9549 96.923L27.502 107.544L26.1014 106.298L35.5543 95.6764Z" fill="#FF9800"/>
<path d="M25.6617 93.3423L27.714 95.9772L32.2518 92.4427L33.41 93.9296L22.1924 102.667L19.3 98.9533C18.3159 97.6898 17.8474 96.495 17.8946 95.3689C17.9378 94.2378 18.509 93.2441 19.6081 92.388C20.3067 91.8439 21.0633 91.5599 21.8781 91.5359C22.6889 91.5068 23.4848 91.7287 24.2657 92.2015L26.9747 85.8581L27.0671 85.7861L28.3033 87.3732L25.6617 93.3423ZM26.5044 96.9193L24.7341 94.6465C24.1621 93.912 23.518 93.4771 22.8018 93.3417C22.0817 93.2011 21.4032 93.3789 20.7663 93.8749C20.0729 94.415 19.7033 95.0371 19.6575 95.7412C19.6078 96.4401 19.8844 97.1819 20.4873 97.9666L22.2515 100.232L26.5044 96.9193Z" fill="#FF9800"/>
<path d="M20.1392 79.0996L22.4392 84.5947L26.379 84.396L27.1255 86.1796L11.913 86.661L11.2795 85.1476L22.2954 74.64L23.0382 76.4146L20.1392 79.0996ZM20.7972 84.6679L18.9308 80.2088L13.7312 85.0107L20.7972 84.6679Z" fill="#FF9800"/>
<path d="M19.2374 66.0714C19.1973 65.4216 19.3588 64.8694 19.7221 64.4148C20.0773 63.9608 20.5554 63.7151 21.1564 63.678C21.7575 63.6408 22.2663 63.8255 22.6828 64.2318C23.0911 64.6387 23.3154 65.1671 23.3556 65.8169C23.3962 66.4748 23.2349 67.0311 22.8716 67.4857C22.5079 67.9321 22.0295 68.1737 21.4366 68.2103C20.8436 68.247 20.3392 68.0662 19.9232 67.6679C19.5067 67.2615 19.2781 66.7294 19.2374 66.0714Z" fill="#FF9800"/>
<path d="M16.5066 52.6388L21.8792 54.0947L21.3888 55.9044L7.66503 52.1854L9.03669 47.1238C9.44367 45.622 10.1454 44.5508 11.1419 43.9102C12.1401 43.2634 13.2708 43.1111 14.5338 43.4534C15.866 43.8144 16.7801 44.5107 17.2763 45.5423C17.7678 46.5658 17.8033 47.8537 17.3827 49.4058L16.5066 52.6388ZM15.0268 52.2377L15.908 48.9859C16.1702 48.0182 16.145 47.2154 15.8322 46.5775C15.5131 45.938 14.9231 45.5015 14.0622 45.2682C13.2453 45.0469 12.522 45.1274 11.8922 45.5098C11.2625 45.8923 10.8164 46.5302 10.554 47.4237L9.64471 50.7792L15.0268 52.2377Z" fill="#FF9800"/>
<path d="M24.2335 32.3021C25.4357 33.0063 26.3677 33.8239 27.0296 34.7549C27.6858 35.6826 28.0327 36.6554 28.0702 37.6733C28.1077 38.6912 27.8369 39.6946 27.2577 40.6833C26.6917 41.6495 25.954 42.3679 25.0444 42.8387C24.1293 43.3061 23.1118 43.491 21.9919 43.3933C20.8697 43.2868 19.7268 42.9002 18.563 42.2335L17.6782 41.7152C16.4985 41.0242 15.5766 40.2087 14.9124 39.2688C14.2481 38.329 13.8961 37.3456 13.8563 36.3188C13.8141 35.283 14.0761 34.282 14.6421 33.3158C15.2179 32.3327 15.9634 31.6075 16.8786 31.1401C17.7914 30.6637 18.8185 30.4882 19.9599 30.6136C21.0956 30.7356 22.2617 31.1471 23.4583 31.848L24.2335 32.3021ZM22.4986 33.4476C21.0437 32.5953 19.7575 32.2342 18.64 32.3643C17.517 32.4911 16.6478 33.0798 16.0324 34.1302C15.4335 35.1526 15.3517 36.1875 15.787 37.2347C16.22 38.2731 17.1225 39.2054 18.4946 40.0318L19.3962 40.5599C20.8062 41.3859 22.0884 41.7409 23.2429 41.6249C24.395 41.5 25.2755 40.9179 25.8842 39.8787C26.4963 38.8338 26.591 37.8028 26.1683 36.7855C25.7399 35.765 24.8201 34.83 23.4087 33.9806L22.4986 33.4476Z" fill="#FF9800"/>
<path d="M30.721 26.706L28.3338 29.0417L32.3565 33.1531L31.0093 34.4712L21.0653 24.308L24.4297 21.0161C25.5745 19.8961 26.709 19.2961 27.8332 19.2163C28.962 19.1319 30.0136 19.5877 30.988 20.5835C31.6072 21.2164 31.9746 21.9363 32.0901 22.7432C32.2103 23.5456 32.0794 24.3613 31.6974 25.1905L38.3054 27.1685L38.3873 27.2522L36.9494 28.6592L30.721 26.706ZM27.2615 27.9458L29.3207 25.9311C29.9861 25.28 30.3458 24.591 30.3998 23.8642C30.4584 23.1329 30.2054 22.4787 29.6408 21.9016C29.0262 21.2734 28.3665 20.9762 27.6617 21.0099C26.9616 21.0391 26.2556 21.3974 25.5437 22.0849L23.4916 24.0928L27.2615 27.9458Z" fill="#FF9800"/>
<path d="M41.4689 10.7388L37.5254 13.0488L43.9323 23.9862L42.3229 24.929L35.9159 13.9916L31.9808 16.2967L31.201 14.9654L40.689 9.40742L41.4689 10.7388Z" fill="#FF9800"/>
<path d="M50.6352 20.9447L48.8773 21.5968L43.9322 8.2657L45.6901 7.61359L50.6352 20.9447Z" fill="#FF9800"/>
<path d="M59.938 12.2861L54.0645 13.3368L55.1701 19.518L53.3244 19.8481L50.8208 5.8515L59.4918 4.30051L59.7634 5.81937L52.9382 7.04022L53.7945 11.8275L59.6681 10.7769L59.938 12.2861Z" fill="#FF9800"/>
<path d="M75.3356 12.3309C75.2229 13.7195 74.8908 14.914 74.3393 15.9144C73.7883 16.9082 73.0624 17.6429 72.1616 18.1184C71.2608 18.594 70.2394 18.7854 69.0973 18.6927C67.9812 18.6021 67.0137 18.2492 66.1949 17.6341C65.3766 17.0125 64.7685 16.176 64.3705 15.1247C63.9795 14.0675 63.8317 12.87 63.9273 11.5322L64.0102 10.5101C64.1209 9.14744 64.4554 7.96294 65.0139 6.95665C65.5724 5.95037 66.3056 5.20647 67.2134 4.72495C68.1283 4.23748 69.1437 4.03904 70.2599 4.12964C71.3955 4.22183 72.3724 4.57873 73.1907 5.20036C74.0159 5.81603 74.6198 6.6652 75.0022 7.74786C75.3851 8.82404 75.5205 10.0532 75.4083 11.4354L75.3356 12.3309ZM73.5508 11.265C73.6872 9.58434 73.4543 8.26886 72.8521 7.31859C72.2505 6.36183 71.3429 5.83419 70.1295 5.73569C68.9485 5.63982 67.9807 6.01522 67.2261 6.86189C66.4786 7.7026 66.0303 8.92032 65.8812 10.5151L65.7967 11.5566C65.6645 13.1853 65.9011 14.4946 66.5066 15.4843C67.1191 16.4681 68.0256 17.0087 69.2261 17.1061C70.4331 17.2041 71.403 16.8419 72.136 16.0196C72.8696 15.1909 73.3127 13.9564 73.4654 12.3162L73.5508 11.265Z" fill="#FF9800"/>
<path d="M78.3405 18.5578L84.7257 20.7102L84.236 22.1631L76.0647 19.4086L80.6066 5.9348L82.3926 6.53684L78.3405 18.5578Z" fill="#FF9800"/>
<path d="M87.1269 23.8899L85.4752 23.0025L92.2047 10.477L93.8564 11.3644L87.1269 23.8899Z" fill="#FF9800"/>
<path d="M102.485 26.9708C101.597 28.0445 100.641 28.8335 99.6156 29.3376C98.5947 29.8367 97.5789 30.0232 96.5681 29.897C95.5573 29.7709 94.6104 29.3428 93.7273 28.6126C92.8643 27.8991 92.2733 27.0557 91.9545 26.0825C91.6398 25.1042 91.6204 24.0703 91.8962 22.9805C92.1813 21.8899 92.7461 20.8237 93.5906 19.7818L94.244 18.9915C95.1152 17.9379 96.0679 17.1585 97.1021 16.6536C98.1363 16.1486 99.1633 15.9587 100.183 16.084C101.212 16.2084 102.158 16.6273 103.021 17.3409C103.9 18.0669 104.496 18.919 104.811 19.8972C105.135 20.8746 105.143 21.9165 104.836 23.023C104.534 24.1245 103.941 25.2097 103.057 26.2784L102.485 26.9708ZM101.632 25.0748C102.707 23.7752 103.269 22.5635 103.32 21.4397C103.375 20.3108 102.933 19.3585 101.995 18.5827C101.082 17.8277 100.073 17.5811 98.9697 17.8429C97.8754 18.1039 96.8105 18.8453 95.7749 20.0672L95.109 20.8725C94.0678 22.1319 93.5119 23.3407 93.4413 24.4988C93.3799 25.656 93.8134 26.6184 94.7416 27.3858C95.6749 28.1575 96.6774 28.4162 97.7492 28.162C98.8252 27.9027 99.8955 27.1446 100.96 25.8876L101.632 25.0748Z" fill="#FF9800"/>
</svg>
