<svg width="25" height="38" viewBox="0 0 25 38" fill="none" xmlns="http://www.w3.org/2000/svg">
<path fill-rule="evenodd" clip-rule="evenodd" d="M24.47 10.083H0L2.25382 35.1947L12.235 37.7702L22.2162 35.1947L24.47 10.083ZM21.8943 12.6583H1.93188L3.77052 33.0981L11.9131 35.1944L20.0556 33.0981L21.8943 12.6583ZM19.5499 14.5901H4.0952L4.41718 17.874H12.449L4.73908 21.6729L5.06106 24.2485H15.3642L15.0422 28.1118L11.8225 28.7557L8.92474 28.1118L8.60277 25.5363L5.06106 25.5363L5.70501 30.3654L11.8225 31.9751L17.94 30.3654L18.9059 21.029L13.1104 21.029L19.233 17.8795L19.2283 17.8705L19.5499 14.5901Z" fill="white"/>
<path d="M9.57324 6.8335C9.55273 7.27881 9.43262 7.67285 9.21289 8.01562C8.99316 8.35547 8.68408 8.61914 8.28564 8.80664C7.89014 8.99414 7.4375 9.08789 6.92773 9.08789C6.08691 9.08789 5.4248 8.81396 4.94141 8.26611C4.45801 7.71826 4.21631 6.94482 4.21631 5.9458V5.62939C4.21631 5.00244 4.32471 4.45459 4.5415 3.98584C4.76123 3.51416 5.07617 3.15088 5.48633 2.896C5.89648 2.63818 6.37109 2.50928 6.91016 2.50928C7.68652 2.50928 8.31055 2.71436 8.78223 3.12451C9.25391 3.53174 9.52197 4.09424 9.58643 4.81201H8.04834C8.03662 4.42236 7.93848 4.14258 7.75391 3.97266C7.56934 3.80273 7.28809 3.71777 6.91016 3.71777C6.52637 3.71777 6.24512 3.86133 6.06641 4.14844C5.8877 4.43555 5.79395 4.89404 5.78516 5.52393V5.97656C5.78516 6.65918 5.87012 7.14697 6.04004 7.43994C6.21289 7.73291 6.50879 7.87939 6.92773 7.87939C7.28223 7.87939 7.55322 7.7959 7.74072 7.62891C7.92822 7.46191 8.02783 7.19678 8.03955 6.8335H9.57324ZM13.603 7.29932C13.603 7.07373 13.5225 6.89795 13.3613 6.77197C13.2031 6.646 12.9233 6.51562 12.522 6.38086C12.1206 6.24609 11.7925 6.11572 11.5376 5.98975C10.7085 5.58252 10.2939 5.02295 10.2939 4.31104C10.2939 3.95654 10.3965 3.64453 10.6016 3.375C10.8096 3.10254 11.1025 2.8916 11.4805 2.74219C11.8584 2.58984 12.2832 2.51367 12.7549 2.51367C13.2148 2.51367 13.6265 2.5957 13.9897 2.75977C14.356 2.92383 14.6401 3.1582 14.8423 3.46289C15.0444 3.76465 15.1455 4.11035 15.1455 4.5H13.6074C13.6074 4.23926 13.5269 4.03711 13.3657 3.89355C13.2075 3.75 12.9922 3.67822 12.7197 3.67822C12.4443 3.67822 12.2261 3.73975 12.0649 3.86279C11.9067 3.98291 11.8276 4.13672 11.8276 4.32422C11.8276 4.48828 11.9155 4.6377 12.0913 4.77246C12.2671 4.9043 12.5762 5.04199 13.0186 5.18555C13.4609 5.32617 13.8242 5.47852 14.1084 5.64258C14.7998 6.04102 15.1455 6.59033 15.1455 7.29053C15.1455 7.8501 14.9346 8.28955 14.5127 8.60889C14.0908 8.92822 13.5122 9.08789 12.7769 9.08789C12.2583 9.08789 11.7881 8.99561 11.3662 8.81104C10.9473 8.62354 10.6309 8.36865 10.417 8.04639C10.2061 7.72119 10.1006 7.34766 10.1006 6.92578H11.6475C11.6475 7.26855 11.7354 7.52197 11.9111 7.68604C12.0898 7.84717 12.3784 7.92773 12.7769 7.92773C13.0317 7.92773 13.2324 7.87354 13.3789 7.76514C13.5283 7.65381 13.603 7.49854 13.603 7.29932ZM19.2368 7.29932C19.2368 7.07373 19.1562 6.89795 18.9951 6.77197C18.8369 6.646 18.5571 6.51562 18.1558 6.38086C17.7544 6.24609 17.4263 6.11572 17.1714 5.98975C16.3423 5.58252 15.9277 5.02295 15.9277 4.31104C15.9277 3.95654 16.0303 3.64453 16.2354 3.375C16.4434 3.10254 16.7363 2.8916 17.1143 2.74219C17.4922 2.58984 17.917 2.51367 18.3887 2.51367C18.8486 2.51367 19.2603 2.5957 19.6235 2.75977C19.9897 2.92383 20.2739 3.1582 20.4761 3.46289C20.6782 3.76465 20.7793 4.11035 20.7793 4.5H19.2412C19.2412 4.23926 19.1606 4.03711 18.9995 3.89355C18.8413 3.75 18.626 3.67822 18.3535 3.67822C18.0781 3.67822 17.8599 3.73975 17.6987 3.86279C17.5405 3.98291 17.4614 4.13672 17.4614 4.32422C17.4614 4.48828 17.5493 4.6377 17.7251 4.77246C17.9009 4.9043 18.21 5.04199 18.6523 5.18555C19.0947 5.32617 19.458 5.47852 19.7422 5.64258C20.4336 6.04102 20.7793 6.59033 20.7793 7.29053C20.7793 7.8501 20.5684 8.28955 20.1465 8.60889C19.7246 8.92822 19.146 9.08789 18.4106 9.08789C17.8921 9.08789 17.4219 8.99561 17 8.81104C16.5811 8.62354 16.2646 8.36865 16.0508 8.04639C15.8398 7.72119 15.7344 7.34766 15.7344 6.92578H17.2812C17.2812 7.26855 17.3691 7.52197 17.5449 7.68604C17.7236 7.84717 18.0122 7.92773 18.4106 7.92773C18.6655 7.92773 18.8662 7.87354 19.0127 7.76514C19.1621 7.65381 19.2368 7.49854 19.2368 7.29932Z" fill="white"/>
</svg>
