<svg width="31" height="30" viewBox="0 0 31 30" fill="none" xmlns="http://www.w3.org/2000/svg">
<path fill-rule="evenodd" clip-rule="evenodd" d="M30.2494 15.3124C30.2494 23.4241 23.5586 29.9999 15.305 29.9999C7.05152 29.9999 0.360718 23.4241 0.360718 15.3124C0.360718 7.20079 7.05152 0.625 15.305 0.625C23.5586 0.625 30.2494 7.20079 30.2494 15.3124ZM22.6637 10H7.31055L14.9871 15.6886L22.7505 10.0159C22.7221 10.0085 22.693 10.0031 22.6637 10ZM14.6115 16.787C14.829 16.9473 15.1421 16.9473 15.3596 16.787L23.2541 11.0166V20.0935C23.2541 20.3869 22.9897 20.6248 22.6636 20.6248H7.31049C6.98435 20.6248 6.71997 20.3869 6.71997 20.0935V10.938L14.6115 16.787Z" fill="white"/>
</svg>
