<svg width="31" height="30" viewBox="0 0 31 30" fill="none" xmlns="http://www.w3.org/2000/svg">
<path fill-rule="evenodd" clip-rule="evenodd" d="M15.275 29.3749C23.5285 29.3749 30.2194 22.7991 30.2194 14.6874C30.2194 6.57579 23.5285 0 15.275 0C7.02149 0 0.330688 6.57579 0.330688 14.6874C0.330688 22.7991 7.02149 29.3749 15.275 29.3749ZM23.8558 22.4998V22.5004H20.4157V17.2912C20.4157 16.0498 20.3894 14.4579 18.6232 14.4579C16.8308 14.4579 16.5564 15.8068 16.5564 17.2017V22.4998H13.1128V11.8002H16.4199V13.2592H16.4684C16.9278 12.4185 18.053 11.5317 19.7298 11.5317C23.2177 11.5317 23.86 13.7467 23.86 16.6221V22.4998H23.8558ZM7.73914 11.5317H11.046V22.5004H7.73914V11.5317ZM7.32581 8.27128C7.32581 7.15517 8.25162 6.24951 9.39258 6.24951C10.5328 6.24951 11.4586 7.15517 11.4593 8.27128C11.4593 9.3874 10.5335 10.312 9.39258 10.312C8.25162 10.312 7.32581 9.3874 7.32581 8.27128Z" fill="white"/>
</svg>
